<mxfile host="app.diagrams.net" modified="2022-06-16T16:33:30.397Z" agent="5.0 (Windows)" etag="J2cWaycCEhgnkBRjSyhB" version="17.4.5" type="github">
  <diagram id="BVYC54DioQzGgMXuUdGz" name="Page-1">
    <mxGraphModel dx="1422" dy="752" grid="1" gridSize="10" guides="1" tooltips="1" connect="1" arrows="1" fold="1" page="1" pageScale="1" pageWidth="850" pageHeight="1100" math="0" shadow="0">
      <root>
        <mxCell id="0" />
        <mxCell id="1" parent="0" />
        <mxCell id="1rXDpp-oLM_TnJDOWFcq-5" value="" style="whiteSpace=wrap;html=1;aspect=fixed;fillColor=#dae8fc;strokeColor=#6c8ebf;" parent="1" vertex="1">
          <mxGeometry x="270" y="200" width="340" height="340" as="geometry" />
        </mxCell>
        <mxCell id="1rXDpp-oLM_TnJDOWFcq-6" value="" style="shape=image;verticalLabelPosition=bottom;labelBackgroundColor=default;verticalAlign=top;aspect=fixed;imageAspect=0;image=https://upload.wikimedia.org/wikipedia/commons/thumb/c/c3/Python-logo-notext.svg/2048px-Python-logo-notext.svg.png;" parent="1" vertex="1">
          <mxGeometry x="210" y="310" width="100" height="100" as="geometry" />
        </mxCell>
        <mxCell id="1rXDpp-oLM_TnJDOWFcq-7" value="" style="dashed=0;outlineConnect=0;html=1;align=center;labelPosition=center;verticalLabelPosition=bottom;verticalAlign=top;shape=mxgraph.weblogos.youtube_2;fillColor=#FF2626;gradientColor=#B5171F" parent="1" vertex="1">
          <mxGeometry x="320" y="230" width="70" height="50" as="geometry" />
        </mxCell>
        <mxCell id="1rXDpp-oLM_TnJDOWFcq-18" style="edgeStyle=orthogonalEdgeStyle;rounded=0;orthogonalLoop=1;jettySize=auto;html=1;" parent="1" source="1rXDpp-oLM_TnJDOWFcq-9" target="1rXDpp-oLM_TnJDOWFcq-17" edge="1">
          <mxGeometry relative="1" as="geometry" />
        </mxCell>
        <mxCell id="1rXDpp-oLM_TnJDOWFcq-9" value="&lt;font face=&quot;Tahoma&quot;&gt;Youtube API to retrieve from search, channels, and videos endpoints. &lt;/font&gt;" style="rounded=0;whiteSpace=wrap;html=1;" parent="1" vertex="1">
          <mxGeometry x="400" y="217.5" width="170" height="95" as="geometry" />
        </mxCell>
        <mxCell id="1rXDpp-oLM_TnJDOWFcq-14" value="" style="sketch=0;aspect=fixed;html=1;points=[];align=center;image;fontSize=12;image=img/lib/mscae/Azure_Database_for_PostgreSQL_servers.svg;" parent="1" vertex="1">
          <mxGeometry x="314" y="390" width="76" height="100" as="geometry" />
        </mxCell>
        <mxCell id="1rXDpp-oLM_TnJDOWFcq-17" value="&lt;font face=&quot;Tahoma&quot;&gt;Load into PostgreSQL hosted on AWS RDS&lt;/font&gt;" style="rounded=0;whiteSpace=wrap;html=1;" parent="1" vertex="1">
          <mxGeometry x="395" y="390" width="180" height="100" as="geometry" />
        </mxCell>
        <mxCell id="1rXDpp-oLM_TnJDOWFcq-20" value="&lt;b&gt;Transform&lt;/b&gt;" style="text;html=1;resizable=0;autosize=1;align=center;verticalAlign=middle;points=[];fillColor=none;strokeColor=none;rounded=0;fontFamily=Tahoma;" parent="1" vertex="1">
          <mxGeometry x="400" y="340" width="80" height="20" as="geometry" />
        </mxCell>
      </root>
    </mxGraphModel>
  </diagram>
</mxfile>
